<svg id="Layer_1" data-name="Layer 1" xmlns="http://www.w3.org/2000/svg" xmlns:xlink="http://www.w3.org/1999/xlink" viewBox="0 0 1000 544.18"><defs><style>.cls-1{fill:url(#linear-gradient);}</style><linearGradient id="linear-gradient" y1="500" x2="1000" y2="500" gradientUnits="userSpaceOnUse"><stop offset="0" stop-color="#827ffe"/><stop offset="0.28" stop-color="#746cf5"/><stop offset="0.73" stop-color="#6052e9"/><stop offset="1" stop-color="#5948e4"/></linearGradient></defs><title>cw</title><path class="cls-1" d="M997.48,282.5l-171,463a40.53,40.53,0,1,1-76-28.09l171-462.95a40.54,40.54,0,1,1,76.05,28.09ZM663.69,758.39c.63-.7,1.23-1.43,1.81-2.18.26-.34.5-.68.74-1,.46-.64.9-1.29,1.33-2,.23-.37.47-.74.69-1.12.4-.68.77-1.38,1.13-2.08.19-.38.4-.75.58-1.14.41-.86.78-1.75,1.13-2.66.09-.23.2-.45.29-.69L796.83,405.88a40.53,40.53,0,1,0-76.05-28.08L629.27,625.58,519.1,386.12c-.34-.74.38.7,0,0-41.65-89.75-130.9-153.3-234.65-157.92C124.48,221.07-7.16,352.92.3,513c6.5,139.22,119,252,258.21,258.79a271.06,271.06,0,0,0,115.3-19.41c20.28-8.21,30-31.41,22.19-51.85a40.64,40.64,0,0,0-53.23-23A189.91,189.91,0,0,1,272.08,691C163.64,691,76,600.18,81.3,490.61c4.67-97.1,83-176,180.09-181.33,85.21-4.67,159.32,46.81,188.5,120.77h0l76.62,166.34,0-.15,70,152.23.13.24c.47,1,1,2,1.51,2.92.17.3.36.59.53.88.46.76.94,1.51,1.45,2.23.18.27.37.54.56.8.65.89,1.33,1.74,2,2.56l.17.22c.79.9,1.62,1.74,2.48,2.56.22.22.46.42.7.64q1,.9,2,1.74c.28.22.55.44.84.65.93.7,1.88,1.37,2.86,2l.52.31c.87.53,1.77,1,2.68,1.48l.93.46c1,.49,2.1,1,3.19,1.36l.16.07h0c1,.38,2.09.71,3.16,1l1,.25c.73.18,1.47.35,2.21.5l1.19.21c.72.11,1.43.2,2.15.28l1.11.12c1,.08,2,.13,3,.13h.27c1.23,0,2.45-.08,3.66-.2l1.19-.14c1-.11,1.89-.27,2.83-.45.35-.07.69-.12,1-.2,1.22-.27,2.42-.6,3.6-1l1-.36c1-.34,1.92-.72,2.87-1.13l.63-.25.34-.18c1.08-.51,2.14-1.05,3.17-1.65.29-.17.56-.36.84-.54.74-.45,1.47-.93,2.19-1.43l1.17-.87c.59-.46,1.17-.93,1.74-1.42.35-.3.71-.59,1-.9.84-.77,1.66-1.57,2.44-2.41C663.37,758.79,663.52,758.58,663.69,758.39Z" transform="translate(0 -227.91)"/></svg>